<?xml version="1.0" encoding="utf-8"?>
<!-- Generator: Adobe Illustrator 19.2.1, SVG Export Plug-In . SVG Version: 6.00 Build 0)  -->
<svg version="1.1" id="Ebene_1" xmlns="http://www.w3.org/2000/svg" xmlns:xlink="http://www.w3.org/1999/xlink" x="0px" y="0px"
	 viewBox="0 0 766.5 388.2" style="enable-background:new 0 0 766.5 388.2;" xml:space="preserve">
<style type="text/css">
	.st0{fill:#2D2C6E;}
	.st1{fill:#FFFFFF;}
	.st2{fill:#00A4E8;}
	.st3{fill:#262274;}
</style>
<g>
	<g>
		<path class="st0" d="M193.9,211h-20.7l-5.1-23.2c-1-4.5-1.7-9.9-2.4-15.8h-0.1c-0.4,5.4-1.2,10.3-2.3,15.1l-5.4,23.9h-19.4
			l-14.9-61.9h18.1l5.7,25.3c0.9,3.9,1.6,8.8,1.9,13.5h0.1c0.6-4.5,1.2-8.8,2.3-13.2l6.5-25.6h17.2l6.2,24.7
			c0.9,3.6,1.9,8.4,2.5,13.6h0.1c0.7-5.3,1.6-10.1,2.5-14.4l5.1-23.9H209L193.9,211z"/>
		<path class="st0" d="M219.9,211v-61.9H237V211L219.9,211L219.9,211z"/>
		<path class="st0" d="M252.2,211v-61.9h17.1v46.7h17.1V211H252.2z"/>
		<path class="st0" d="M298.2,211v-61.9h17.1v46.7h17.1V211H298.2z"/>
		<path class="st0" d="M379.9,211v-24.4h-18.5V211h-17.1v-61.9h17.1v22.6h18.5v-22.6H397V211L379.9,211L379.9,211z"/>
		<path class="st0" d="M449.1,211l-3.2-10.1h-19.1l-3.1,10.1h-16.9l20.2-61.9h19.5l21.2,61.9H449.1z M439.1,179.8
			c-1.1-3.6-2.2-6.9-2.8-10.7h-0.2c-0.6,3.6-1.7,7.7-3,11.7l-2.1,6.8h10.6L439.1,179.8z"/>
		<path class="st0" d="M498.8,211.2c-3.8,0-10.9-0.2-21.4-0.2v-61.8c6.2-0.4,17-0.6,24.7-0.6c13.4,0,22,5.1,22,16
			c0,5.5-3.2,10.5-8,12.9v0.3c5.3,1.8,8.9,7.4,8.9,13.4C525.1,202.4,516.5,211.2,498.8,211.2z M499.4,162.4c-1.9,0-3.4,0.1-4.9,0.2
			v10.5c1,0.1,2.2,0.1,3.7,0.1c5.3,0,7.8-2.3,7.8-5.9C506,164.1,503.4,162.4,499.4,162.4z M498.9,185.7c-0.6,0-3.4,0-4.4,0.1v11.3
			c1.1,0.1,2.9,0.2,4.4,0.2c4.6,0,7.7-2,7.7-5.9C506.6,188.2,504.2,185.7,498.9,185.7z"/>
		<path class="st0" d="M536.9,211v-61.9h36.2v14.5h-19.2v8.7h18.2v13.9h-18.2v10h19.2V211H536.9z"/>
		<path class="st0" d="M619.8,211l-10.3-21.1c-2.4-4.9-4.6-9.8-6.1-13.9c0.4,3.7,0.5,5.8,0.5,9.8v25.3h-16.4v-62h21.8l9,18.4
			c2.7,5.5,5.4,11.1,7.5,16.1c-0.5-4.2-0.6-9-0.6-12.8v-21.7h16.3V211L619.8,211L619.8,211z"/>
	</g>
	<path class="st1" d="M636.7,31H130.1c-54.4,0-98.3,44.7-98.3,100.1s43.9,100.1,98.3,100.1h506.3c54.4,0,98.3-44.7,98.3-100.1
		C734.7,76,690.8,31,636.7,31z"/>
	<path class="st2" d="M636.7,261.4H130.1C59.2,261.4,1.5,203,1.5,131.1S59.2,0.8,130.1,0.8h506.3C707.3,0.8,765,59.2,765,131.1
		C765.2,203,707.5,261.4,636.7,261.4z M130.1,61.5c-37.3,0-67.8,31.2-67.8,69.9c0,38.4,30.5,69.9,67.8,69.9h506.3
		c37.3,0,67.8-31.2,67.8-69.9c0-38.4-30.5-69.9-67.8-69.9H130.1z"/>
	<path class="st2" d="M230.7,367.4c-13.7,20.8-42.4,26.4-64,12.2l0,0c-21.8-14.2-28.5-42.7-14.7-63.5l60.7-93.2
		c13.7-20.8,42.2-26.4,64-12.2l0,0c21.8,14.2,45.2,18.5,31.8,39.4L230.7,367.4z"/>
	<g>
		<path class="st3" d="M196.4,161.3h-20.6l-5.1-23.1c-1-4.6-1.8-9.9-2.3-15.8l0,0c-0.3,5.3-1.3,10.2-2.3,15l-5.3,23.9h-19.3
			l-14.7-61.7h18l5.6,25.2c1,3.8,1.5,8.9,2,13.5l0,0c0.5-4.6,1.3-8.9,2.3-13.2l6.6-25.4h17l6.1,24.6c1,3.6,2,8.4,2.5,13.5l0,0
			c0.8-5.3,1.5-10.2,2.5-14.2l5.1-23.9h17L196.4,161.3z"/>
		<path class="st3" d="M222.1,161.3V99.6h17v61.7C239.1,161.3,222.1,161.3,222.1,161.3z"/>
		<path class="st3" d="M254.3,161.3V99.6h17v46.7h17v15.2h-34V161.3z"/>
		<path class="st3" d="M300.3,161.3V99.6h17v46.7h17v15.2h-34V161.3z"/>
		<path class="st3" d="M381.6,161.3v-24.4h-18.5v24.4h-17V99.6h17v22.6h18.5V99.6h17v61.7C398.6,161.3,381.6,161.3,381.6,161.3z"/>
		<path class="st3" d="M450.4,161.3l-3.3-10.2h-19.1l-3,10.2h-16.8l20.1-61.7h19.6l21.1,61.7H450.4z M440.5,130.3
			c-1-3.6-2.3-6.9-2.8-10.7h-0.3c-0.5,3.6-1.8,7.6-3,11.7l-2,6.9h10.7L440.5,130.3z"/>
		<path class="st3" d="M500,161.6c-3.8,0-10.9-0.3-21.3-0.3V99.8c6.1-0.3,17-0.5,24.6-0.5c13.5,0,21.8,5.1,21.8,16
			c0,5.6-3.3,10.4-7.9,13v0.3c5.3,1.8,8.9,7.4,8.9,13.5C526.1,152.7,517.5,161.6,500,161.6z M500.5,113.1c-2,0-3.3,0-4.8,0.3v10.2
			c1,0,2.3,0,3.6,0c5.3,0,7.9-2.3,7.9-5.8C507.1,114.6,504.6,113.1,500.5,113.1z M500,136.2c-0.8,0-3.3,0-4.3,0v11.2
			c1,0,3,0.3,4.3,0.3c4.6,0,7.6-2,7.6-5.8C507.9,138.7,505.3,136.2,500,136.2z"/>
		<path class="st3" d="M537.8,161.3V99.6h36.1v14.5h-19.1v8.6h18v14h-18v9.9h19.1v14.7H537.8z"/>
		<path class="st3" d="M620.7,161.3l-10.4-21.1c-2.3-4.8-4.6-9.7-6.1-14c0.3,3.6,0.5,5.8,0.5,9.7v25.2h-16.3V99.6h21.8l8.9,18.3
			c2.5,5.6,5.3,11.2,7.4,16c-0.5-4.3-0.8-8.9-0.8-12.7V99.6H642v61.7C642,161.3,620.7,161.3,620.7,161.3z"/>
	</g>
</g>
</svg>
